<svg width="26" height="24" viewBox="0 0 26 24" fill="none" xmlns="http://www.w3.org/2000/svg">
<path d="M18.6948 16.9337C18.0192 16.9337 17.3957 17.1643 16.9073 17.5493L11.9954 14.093C12.0776 13.6539 12.0776 13.2039 11.9954 12.7648L16.9073 9.30846C17.3957 9.69352 18.0192 9.9241 18.6948 9.9241C20.2642 9.9241 21.5396 8.68359 21.5396 7.15717C21.5396 5.63074 20.2642 4.39023 18.6948 4.39023C17.1254 4.39023 15.85 5.63074 15.85 7.15717C15.85 7.42464 15.888 7.68058 15.9614 7.92499L11.296 11.2107C10.6038 10.3184 9.50382 9.73964 8.26397 9.73964C6.16833 9.73964 4.47095 11.3906 4.47095 13.4289C4.47095 15.4672 6.16833 17.1181 8.26397 17.1181C9.50382 17.1181 10.6038 16.5394 11.296 15.6471L15.9614 18.9328C15.888 19.1772 15.85 19.4355 15.85 19.7006C15.85 21.227 17.1254 22.4676 18.6948 22.4676C20.2642 22.4676 21.5396 21.227 21.5396 19.7006C21.5396 18.1742 20.2642 16.9337 18.6948 16.9337ZM18.6948 5.95816C19.3752 5.95816 19.9275 6.49541 19.9275 7.15717C19.9275 7.81893 19.3752 8.35617 18.6948 8.35617C18.0144 8.35617 17.4621 7.81893 17.4621 7.15717C17.4621 6.49541 18.0144 5.95816 18.6948 5.95816ZM8.26397 15.458C7.11421 15.458 6.17781 14.5472 6.17781 13.4289C6.17781 12.3106 7.11421 11.3998 8.26397 11.3998C9.41373 11.3998 10.3501 12.3106 10.3501 13.4289C10.3501 14.5472 9.41373 15.458 8.26397 15.458ZM18.6948 20.8996C18.0144 20.8996 17.4621 20.3624 17.4621 19.7006C17.4621 19.0389 18.0144 18.5016 18.6948 18.5016C19.3752 18.5016 19.9275 19.0389 19.9275 19.7006C19.9275 20.3624 19.3752 20.8996 18.6948 20.8996Z" fill="white"/>
</svg>
