<svg width="24" height="24" viewBox="0 0 24 24" fill="none" xmlns="http://www.w3.org/2000/svg">
<path d="M17.76 14.6535C17.4619 14.5004 15.9772 13.773 15.701 13.6746C15.4248 13.5707 15.2225 13.5215 15.0229 13.8277C14.8205 14.1313 14.2463 14.8066 14.0659 15.0117C13.8909 15.2141 13.7131 15.2387 13.4151 15.0883C11.6432 14.2023 10.4811 13.5078 9.31353 11.5035C9.00455 10.9703 9.62251 11.0086 10.1995 9.85742C10.2979 9.65508 10.2487 9.48281 10.1721 9.32969C10.0956 9.17656 9.494 7.69453 9.24244 7.09023C8.99908 6.50234 8.74751 6.58437 8.56431 6.57344C8.38931 6.5625 8.1897 6.5625 7.98736 6.5625C7.78502 6.5625 7.45963 6.63906 7.18346 6.93711C6.90729 7.24063 6.12799 7.9707 6.12799 9.45273C6.12799 10.9348 7.20807 12.3703 7.35572 12.5727C7.50885 12.775 9.48033 15.8156 12.5073 17.1254C14.4213 17.9512 15.1705 18.0223 16.1276 17.8801C16.71 17.7926 17.9104 17.1527 18.1592 16.4445C18.408 15.7391 18.408 15.1348 18.3342 15.009C18.2604 14.875 18.058 14.7984 17.76 14.6535Z" fill="white"/>
<path d="M23.0804 7.35C22.4926 5.91161 21.6499 4.62054 20.5757 3.51161C19.5015 2.40536 18.2479 1.53482 16.8486 0.932143C15.4181 0.313393 13.8992 0 12.3335 0H12.2814C10.7053 0.00803571 9.17856 0.329464 7.74286 0.961607C6.35658 1.57232 5.11335 2.44018 4.04959 3.54643C2.98582 4.65268 2.15093 5.93839 1.57353 7.37143C0.975324 8.85536 0.673619 10.433 0.681422 12.0562C0.689225 13.9152 1.12097 15.7607 1.92985 17.4107V21.4821C1.92985 22.1625 2.46564 22.7143 3.12627 22.7143H7.08224C8.68439 23.5473 10.4764 23.992 12.2814 24H12.3361C13.894 24 15.4051 23.6893 16.8278 23.0813C18.2193 22.4839 19.4703 21.6268 20.5419 20.5313C21.6161 19.4357 22.4614 18.1554 23.0518 16.7277C23.6656 15.2491 23.9777 13.6768 23.9855 12.0536C23.9933 10.4223 23.6864 8.83929 23.0804 7.35V7.35ZM19.1504 19.0821C17.3272 20.9411 14.9083 21.9643 12.3335 21.9643H12.2892C10.7209 21.9563 9.16296 21.5545 7.78708 20.7991L7.5686 20.6786H3.90654V16.9071L3.7895 16.6821C3.05604 15.2652 2.66591 13.6607 2.65811 12.0455C2.6477 9.375 3.63864 6.86786 5.45667 4.97946C7.2721 3.09107 9.69874 2.04643 12.2918 2.03571H12.3361C13.6365 2.03571 14.8979 2.29554 16.0865 2.80982C17.2466 3.31071 18.2869 4.03125 19.1816 4.95268C20.0737 5.87143 20.776 6.94554 21.2623 8.14018C21.7669 9.37768 22.0192 10.6902 22.014 12.0455C21.9984 14.7134 20.9814 17.2125 19.1504 19.0821V19.0821Z" fill="white"/>
<path d="M23.0804 7.35C22.4926 5.91161 21.6499 4.62054 20.5757 3.51161C19.5015 2.40536 18.2479 1.53482 16.8486 0.932143C15.4181 0.313393 13.8992 0 12.3335 0H12.2814C10.7053 0.00803571 9.17856 0.329464 7.74286 0.961607C6.35658 1.57232 5.11335 2.44018 4.04959 3.54643C2.98582 4.65268 2.15093 5.93839 1.57353 7.37143C0.975324 8.85536 0.673619 10.433 0.681422 12.0562C0.689225 13.9152 1.12097 15.7607 1.92985 17.4107V21.4821C1.92985 22.1625 2.46564 22.7143 3.12627 22.7143H7.08224C8.68439 23.5473 10.4764 23.992 12.2814 24H12.3361C13.894 24 15.4051 23.6893 16.8278 23.0813C18.2193 22.4839 19.4703 21.6268 20.5419 20.5313C21.6161 19.4357 22.4614 18.1554 23.0518 16.7277C23.6656 15.2491 23.9777 13.6768 23.9855 12.0536C23.9933 10.4223 23.6864 8.83929 23.0804 7.35V7.35ZM19.1504 19.0821C17.3272 20.9411 14.9083 21.9643 12.3335 21.9643H12.2892C10.7209 21.9563 9.16296 21.5545 7.78708 20.7991L7.5686 20.6786H3.90654V16.9071L3.7895 16.6821C3.05604 15.2652 2.66591 13.6607 2.65811 12.0455C2.6477 9.375 3.63864 6.86786 5.45667 4.97946C7.2721 3.09107 9.69874 2.04643 12.2918 2.03571H12.3361C13.6365 2.03571 14.8979 2.29554 16.0865 2.80982C17.2466 3.31071 18.2869 4.03125 19.1816 4.95268C20.0737 5.87143 20.776 6.94554 21.2623 8.14018C21.7669 9.37768 22.0192 10.6902 22.014 12.0455C21.9984 14.7134 20.9814 17.2125 19.1504 19.0821V19.0821Z" fill="white"/>
</svg>
