<svg width="24" height="24" viewBox="0 0 24 24" fill="none" xmlns="http://www.w3.org/2000/svg">
<path fill-rule="evenodd" clip-rule="evenodd" d="M7.52958 0.072C8.77212 0.0130909 9.1683 0 12.3335 0C15.4986 0 15.8948 0.0141818 17.1363 0.072C18.3778 0.129818 19.2252 0.333818 19.9667 0.629455C20.7431 0.931636 21.4476 1.404 22.0302 2.01491C22.6234 2.61382 23.081 3.33818 23.3734 4.13891C23.6615 4.90255 23.8585 5.77527 23.9157 7.05164C23.9729 8.33346 23.9856 8.74146 23.9856 12C23.9856 15.2596 23.9719 15.6676 23.9157 16.9473C23.8596 18.2236 23.6615 19.0964 23.3734 19.86C23.081 20.6608 22.6226 21.3864 22.0302 21.9862C21.4476 22.5971 20.7431 23.0684 19.9667 23.3695C19.2252 23.6662 18.3778 23.8691 17.1384 23.928C15.8948 23.9869 15.4986 24 12.3335 24C9.1683 24 8.77212 23.9858 7.52958 23.928C6.29021 23.8702 5.44278 23.6662 4.70128 23.3695C3.92367 23.0683 3.21914 22.5963 2.63672 21.9862C2.04392 21.3869 1.58518 20.6617 1.29248 19.8611C1.00542 19.0975 0.808389 18.2247 0.751187 16.9484C0.693986 15.6665 0.681274 15.2585 0.681274 12C0.681274 8.74036 0.695045 8.33236 0.751187 7.05382C0.80733 5.77527 1.00542 4.90255 1.29248 4.13891C1.58561 3.33827 2.0447 2.61307 2.63778 2.01382C3.21937 1.40346 3.9232 0.931029 4.70022 0.629455C5.44172 0.333818 6.28915 0.130909 7.52852 0.072H7.52958ZM17.042 2.232C15.8132 2.17418 15.4446 2.16218 12.3335 2.16218C9.22232 2.16218 8.85369 2.17418 7.62491 2.232C6.4883 2.28545 5.87179 2.48073 5.46079 2.64545C4.91737 2.86364 4.52861 3.12218 4.12079 3.54218C3.73419 3.92951 3.43668 4.40104 3.25005 4.92218C3.0901 5.34545 2.90048 5.98036 2.84858 7.15091C2.79244 8.41636 2.78078 8.796 2.78078 12C2.78078 15.204 2.79244 15.5836 2.84858 16.8491C2.90048 18.0196 3.0901 18.6545 3.25005 19.0778C3.43648 19.5982 3.73414 20.0705 4.12079 20.4578C4.49683 20.856 4.9555 21.1625 5.46079 21.3545C5.87179 21.5193 6.4883 21.7145 7.62491 21.768C8.85369 21.8258 9.22126 21.8378 12.3335 21.8378C15.4456 21.8378 15.8132 21.8258 17.042 21.768C18.1786 21.7145 18.7951 21.5193 19.2061 21.3545C19.7495 21.1364 20.1383 20.8778 20.5461 20.4578C20.9328 20.0705 21.2304 19.5982 21.4169 19.0778C21.5768 18.6545 21.7664 18.0196 21.8183 16.8491C21.8745 15.5836 21.8861 15.204 21.8861 12C21.8861 8.796 21.8745 8.41636 21.8183 7.15091C21.7664 5.98036 21.5768 5.34545 21.4169 4.92218C21.205 4.36255 20.9539 3.96218 20.5461 3.54218C20.17 3.14408 19.7121 2.83768 19.2061 2.64545C18.7951 2.48073 18.1786 2.28545 17.042 2.232ZM10.8451 15.6993C11.6763 16.0556 12.6019 16.1037 13.4636 15.8353C14.3254 15.567 15.07 14.9988 15.5702 14.2279C16.0704 13.457 16.2952 12.5311 16.2063 11.6085C16.1173 10.6858 15.72 9.82361 15.0823 9.16909C14.6758 8.7507 14.1843 8.43034 13.6431 8.23107C13.1019 8.0318 12.5246 7.95858 11.9526 8.01667C11.3807 8.07477 10.8284 8.26274 10.3354 8.56705C9.84249 8.87136 9.4212 9.28445 9.10188 9.77657C8.78257 10.2687 8.57318 10.8276 8.48878 11.413C8.40438 11.9985 8.44708 12.596 8.6138 13.1624C8.78052 13.7288 9.06711 14.2501 9.45295 14.6888C9.83878 15.1275 10.3143 15.4726 10.8451 15.6993ZM8.09841 7.63855C8.65457 7.06579 9.31482 6.61146 10.0415 6.30149C10.7681 5.99151 11.5469 5.83197 12.3335 5.83197C13.12 5.83197 13.8988 5.99151 14.6254 6.30149C15.3521 6.61146 16.0123 7.06579 16.5685 7.63855C17.1246 8.2113 17.5658 8.89126 17.8668 9.6396C18.1678 10.3879 18.3227 11.19 18.3227 12C18.3227 12.81 18.1678 13.6121 17.8668 14.3604C17.5658 15.1087 17.1246 15.7887 16.5685 16.3615C15.4453 17.5182 13.9219 18.168 12.3335 18.168C10.745 18.168 9.22162 17.5182 8.09841 16.3615C6.97521 15.2047 6.3442 13.6359 6.3442 12C6.3442 10.3641 6.97521 8.79528 8.09841 7.63855ZM19.651 6.75055C19.7888 6.61666 19.8992 6.45565 19.9755 6.27706C20.0518 6.09847 20.0925 5.90593 20.0953 5.71083C20.0981 5.51574 20.0628 5.32205 19.9916 5.14125C19.9203 4.96044 19.8146 4.79619 19.6806 4.65822C19.5467 4.52026 19.3872 4.41137 19.2116 4.33802C19.0361 4.26467 18.848 4.22834 18.6585 4.23118C18.4691 4.23403 18.2821 4.27599 18.1087 4.35458C17.9353 4.43317 17.779 4.54679 17.649 4.68873C17.3961 4.96476 17.2577 5.33141 17.2631 5.71083C17.2684 6.09026 17.4172 6.4526 17.6777 6.72092C17.9383 6.98924 18.2901 7.14243 18.6585 7.14796C19.027 7.15349 19.383 7.01093 19.651 6.75055Z" fill="white"/>
</svg>
