<svg width="14" height="14" viewBox="0 0 14 14" fill="none" xmlns="http://www.w3.org/2000/svg">
<path fill-rule="evenodd" clip-rule="evenodd" d="M13.125 6.83907C13.125 6.7257 13.079 6.61698 12.9969 6.53682C12.9149 6.45666 12.8036 6.41163 12.6875 6.41163H2.36867L5.1223 3.72216C5.16298 3.68242 5.19524 3.63524 5.21726 3.58331C5.23927 3.53139 5.2506 3.47573 5.2506 3.41953C5.2506 3.36333 5.23927 3.30767 5.21726 3.25575C5.19524 3.20382 5.16298 3.15664 5.1223 3.1169C5.08162 3.07716 5.03333 3.04563 4.98019 3.02412C4.92704 3.00262 4.87008 2.99155 4.81255 2.99155C4.75502 2.99155 4.69806 3.00262 4.64491 3.02412C4.59177 3.04563 4.54348 3.07716 4.5028 3.1169L1.0028 6.53644C0.962057 6.57615 0.929732 6.62331 0.907676 6.67524C0.885621 6.72717 0.874268 6.78285 0.874268 6.83907C0.874268 6.89529 0.885621 6.95096 0.907676 7.00289C0.929732 7.05482 0.962057 7.10199 1.0028 7.1417L4.5028 10.5612C4.54348 10.601 4.59177 10.6325 4.64491 10.654C4.69806 10.6755 4.75502 10.6866 4.81255 10.6866C4.87008 10.6866 4.92704 10.6755 4.98019 10.654C5.03333 10.6325 5.08162 10.601 5.1223 10.5612C5.16298 10.5215 5.19524 10.4743 5.21726 10.4224C5.23927 10.3705 5.2506 10.3148 5.2506 10.2586C5.2506 10.2024 5.23927 10.1468 5.21726 10.0948C5.19524 10.0429 5.16298 9.99572 5.1223 9.95598L2.36867 7.26651H12.6875C12.8036 7.26651 12.9149 7.22148 12.9969 7.14132C13.079 7.06116 13.125 6.95243 13.125 6.83907Z" fill="white"/>
</svg>
