<svg width="66" height="60" viewBox="0 0 66 60" fill="none" xmlns="http://www.w3.org/2000/svg">
<path d="M42.1 5.99225L63.8783 42.2655C67.008 47.4752 65.4708 54.3295 60.443 57.573C58.7555 58.6656 56.7886 59.2479 54.7783 59.25H11.2185C5.30025 59.25 0.5 54.2775 0.5 48.1382C0.5 46.0615 1.06225 44.0302 2.1185 42.2655L23.9 5.99225C27.0265 0.782497 33.637 -0.813252 38.6648 2.43025C40.0558 3.32725 41.2323 4.546 42.1 5.99225ZM33 46.25C33.862 46.25 34.6886 45.9076 35.2981 45.2981C35.9076 44.6886 36.25 43.8619 36.25 43C36.25 42.138 35.9076 41.3114 35.2981 40.7019C34.6886 40.0924 33.862 39.75 33 39.75C32.1381 39.75 31.3114 40.0924 30.7019 40.7019C30.0924 41.3114 29.75 42.138 29.75 43C29.75 43.8619 30.0924 44.6886 30.7019 45.2981C31.3114 45.9076 32.1381 46.25 33 46.25ZM33 17C32.1381 17 31.3114 17.3424 30.7019 17.9519C30.0924 18.5614 29.75 19.388 29.75 20.25V33.25C29.75 34.1119 30.0924 34.9386 30.7019 35.5481C31.3114 36.1576 32.1381 36.5 33 36.5C33.862 36.5 34.6886 36.1576 35.2981 35.5481C35.9076 34.9386 36.25 34.1119 36.25 33.25V20.25C36.25 19.388 35.9076 18.5614 35.2981 17.9519C34.6886 17.3424 33.862 17 33 17Z" fill="#EF0F0F" fill-opacity="0.47"/>
</svg>
